<svg width="150" height="150" viewBox="0 0 150 150" fill="none" xmlns="http://www.w3.org/2000/svg">
<rect width="150" height="150" rx="75" fill="#F2F2F7"/>
<path d="M57.0365 98.8118H93.0906C95.6891 98.8118 97.1553 98.0247 97.1553 95.739C97.1553 88.955 88.6982 79.5813 75.0646 79.5813C61.4283 79.5813 52.9397 88.955 52.9397 95.739C52.9397 98.0247 54.4059 98.8118 57.0365 98.8118ZM75.1279 74.7836C80.9714 74.7836 85.4398 69.7697 85.4398 63.2532C85.4398 57.1507 80.8764 52 75.1279 52C69.3794 52 64.7186 57.1602 64.7819 63.258C64.7819 69.7697 69.282 74.7836 75.1279 74.7836Z" fill="#888888"/>
<path d="M121.455 98.8117C123.767 98.8117 125 97.8884 125 95.5347C125 87.9622 117.664 79.4497 105.803 79.4497C100.114 79.4497 95.9575 81.318 93.025 83.8552C98.9979 88.9994 100.967 97.0383 98.0219 98.8117H121.455ZM28.5456 98.8117H52.0096C49.033 97.0383 51.0023 88.9994 56.9725 83.8552C54.074 81.318 49.886 79.4497 44.2288 79.4497C32.3676 79.4497 25 87.9622 25 95.5347C25 97.8884 26.2644 98.8117 28.5456 98.8117ZM44.2921 75.3646C49.389 75.3646 53.274 71.0292 53.274 65.3345C53.274 60.0197 49.2941 55.5159 44.2921 55.5159C39.2926 55.5159 35.247 60.0269 35.3103 65.3393C35.3103 71.0292 39.1976 75.3646 44.2921 75.3646ZM105.737 75.3646C110.834 75.3646 114.69 71.0292 114.69 65.3393C114.69 60.0269 110.739 55.5159 105.737 55.5159C100.737 55.5159 96.7258 60.0197 96.7258 65.3345C96.7258 71.0292 100.643 75.3646 105.737 75.3646Z" fill="#888888"/>
</svg>
