<svg width="79" height="56" viewBox="0 0 79 56" fill="none" xmlns="http://www.w3.org/2000/svg">
<rect width="79" height="55.375" rx="7" fill="black"/>
<rect x="20.4375" y="7" width="51.5625" height="18.1875" rx="9.09375" fill="#448AF7"/>
<path d="M74.114 24.4546C71.4327 24.8671 68.7858 23.3906 67.9265 22.4453C68.8122 20.3331 63.3436 15.2028 66.953 15.2026C67.7876 15.2026 68.5004 13.0163 71.5358 14.6577C71.5468 15.3212 71.5358 17.618 71.5358 18.009C71.5358 23.4231 74.6296 24.1435 74.114 24.4546Z" fill="#448AF7"/>
<path d="M4.2647 48.4702C6.94595 48.8827 9.59283 47.4063 10.4522 46.4609C9.56642 44.3487 15.035 39.2185 11.4257 39.2183C10.5911 39.2183 9.87823 37.032 6.84283 38.6733C6.83189 39.3368 6.84283 41.6336 6.84283 42.0247C6.84283 47.4387 3.74908 48.1591 4.2647 48.4702Z" fill="#262628"/>
<rect x="7.05151" y="30.1875" width="51.5109" height="18.1875" rx="9.09375" fill="#262628"/>
<rect x="0.25" y="0.25" width="78.5" height="54.875" rx="6.75" stroke="#545458" stroke-opacity="0.65" stroke-width="0.5"/>
</svg>
