<svg width="79" height="56" viewBox="0 0 79 56" fill="none" xmlns="http://www.w3.org/2000/svg">
<rect x="0.25" y="0.25" width="78.5" height="54.875" rx="6.75" fill="white"/>
<rect x="20.4375" y="7" width="51.5625" height="18.1875" rx="9.09375" fill="#448AF7"/>
<path d="M74.114 24.4546C71.4327 24.8671 68.7858 23.3906 67.9265 22.4453C68.8122 20.3331 63.3436 15.2028 66.953 15.2026C67.7876 15.2026 68.5004 13.0163 71.5358 14.6577C71.5468 15.3212 71.5358 17.618 71.5358 18.009C71.5358 23.4231 74.6296 24.1435 74.114 24.4546Z" fill="#448AF7"/>
<rect x="7" y="30.1875" width="51.5625" height="18.1875" rx="9.09375" fill="#E9E9EB"/>
<path d="M4.47979 48.1577C7.16104 48.5702 9.80792 47.0938 10.6673 46.1484C9.78151 44.0362 15.2501 38.906 11.6407 38.9058C10.8062 38.9058 10.0933 36.7195 7.05791 38.3608C7.04698 39.0243 7.05791 41.3211 7.05791 41.7122C7.05791 47.1262 3.96417 47.8466 4.47979 48.1577Z" fill="#E9E9EB"/>
<rect x="0.25" y="0.25" width="78.5" height="54.875" rx="6.75" stroke="#C6C6C8" stroke-width="0.5"/>
</svg>
